<svg xmlns="http://www.w3.org/2000/svg" xmlns:xlink="http://www.w3.org/1999/xlink" width="600" height="500">
  <defs>
    <path id="a" d="M0 0h176v139l-37 .4a8 8 0 0 0-8 8V176H0V0Z" />
    <path id="c" d="M0 139h106c5 0 9 4 9 9v12h85V0H0v139Z" />
  </defs>
  <g fill="none" fill-rule="evenodd">
    <path fill="#00FFE0" fill-rule="nonzero"
      d="M260 87.5c0 1.9-1.6 3.5-3.5 3.5a3.5 3.5 0 0 1-3.5-3.5c0-1.9 1.6-3.5 3.5-3.5s3.5 1.6 3.5 3.5Zm0 14c0 1.9-1.6 3.5-3.5 3.5a3.5 3.5 0 0 1-3.5-3.5c0-1.9 1.6-3.5 3.5-3.5s3.5 1.6 3.5 3.5Zm0 14c0 1.9-1.6 3.5-3.5 3.5a3.5 3.5 0 0 1-3.5-3.5c0-1.9 1.6-3.5 3.5-3.5s3.5 1.6 3.5 3.5Zm0 14c0 1.9-1.6 3.5-3.5 3.5a3.5 3.5 0 0 1-3.5-3.5c0-1.9 1.6-3.5 3.5-3.5s3.5 1.6 3.5 3.5Zm0 14c0 1.9-1.6 3.5-3.5 3.5a3.5 3.5 0 0 1-3.5-3.5c0-1.9 1.6-3.5 3.5-3.5s3.5 1.6 3.5 3.5Zm0 14c0 1.9-1.6 3.5-3.5 3.5a3.5 3.5 0 0 1-3.5-3.5c0-1.9 1.6-3.5 3.5-3.5s3.5 1.6 3.5 3.5Zm0 14c0 1.9-1.6 3.5-3.5 3.5a3.5 3.5 0 0 1-3.5-3.5c0-1.9 1.6-3.5 3.5-3.5s3.5 1.6 3.5 3.5Zm0 14c0 1.9-1.6 3.5-3.5 3.5a3.5 3.5 0 0 1-3.5-3.5c0-1.9 1.6-3.5 3.5-3.5s3.5 1.6 3.5 3.5Zm0 14c0 1.9-1.6 3.5-3.5 3.5a3.5 3.5 0 0 1-3.5-3.5c0-1.9 1.6-3.5 3.5-3.5s3.5 1.6 3.5 3.5Zm14-112c0 1.9-1.6 3.5-3.5 3.5a3.5 3.5 0 0 1-3.5-3.5c0-1.9 1.6-3.5 3.5-3.5 2 0 3.5 1.6 3.5 3.5Zm14 0c0 1.9-1.6 3.5-3.5 3.5a3.5 3.5 0 0 1-3.5-3.5c0-1.9 1.6-3.5 3.5-3.5 2 0 3.5 1.6 3.5 3.5Zm14 0c0 1.9-1.6 3.5-3.5 3.5a3.5 3.5 0 0 1-3.5-3.5c0-1.9 1.6-3.5 3.5-3.5 2 0 3.5 1.6 3.5 3.5Zm14 0c0 1.9-1.6 3.5-3.5 3.5a3.5 3.5 0 0 1-3.5-3.5c0-1.9 1.6-3.5 3.5-3.5 2 0 3.5 1.6 3.5 3.5Zm14 0c0 1.9-1.6 3.5-3.5 3.5a3.5 3.5 0 0 1-3.5-3.5c0-1.9 1.6-3.5 3.5-3.5 2 0 3.5 1.6 3.5 3.5Zm14 0c0 1.9-1.6 3.5-3.5 3.5a3.5 3.5 0 0 1-3.5-3.5c0-1.9 1.6-3.5 3.5-3.5 2 0 3.5 1.6 3.5 3.5Zm14 0c0 1.9-1.6 3.5-3.5 3.5a3.5 3.5 0 0 1-3.5-3.5c0-1.9 1.6-3.5 3.5-3.5 2 0 3.5 1.6 3.5 3.5Zm14 0c0 1.9-1.6 3.5-3.5 3.5a3.5 3.5 0 0 1-3.5-3.5c0-1.9 1.6-3.5 3.5-3.5 2 0 3.5 1.6 3.5 3.5Z" />
    <path fill="#00FFE0" fill-rule="nonzero"
      d="M537 361.5c0-1.9 1.6-3.5 3.5-3.5s3.5 1.6 3.5 3.5-1.6 3.5-3.5 3.5a3.5 3.5 0 0 1-3.5-3.5Zm0-14c0-1.9 1.6-3.5 3.5-3.5s3.5 1.6 3.5 3.5-1.6 3.5-3.5 3.5a3.5 3.5 0 0 1-3.5-3.5Zm0-14c0-1.9 1.6-3.5 3.5-3.5s3.5 1.6 3.5 3.5-1.6 3.5-3.5 3.5a3.5 3.5 0 0 1-3.5-3.5Zm0-14c0-1.9 1.6-3.5 3.5-3.5s3.5 1.6 3.5 3.5-1.6 3.5-3.5 3.5a3.5 3.5 0 0 1-3.5-3.5Zm0-14c0-1.9 1.6-3.5 3.5-3.5s3.5 1.6 3.5 3.5-1.6 3.5-3.5 3.5a3.5 3.5 0 0 1-3.5-3.5Zm0-14c0-1.9 1.6-3.5 3.5-3.5s3.5 1.6 3.5 3.5-1.6 3.5-3.5 3.5a3.5 3.5 0 0 1-3.5-3.5Zm0-14c0-1.9 1.6-3.5 3.5-3.5s3.5 1.6 3.5 3.5-1.6 3.5-3.5 3.5a3.5 3.5 0 0 1-3.5-3.5Zm0-14c0-1.9 1.6-3.5 3.5-3.5s3.5 1.6 3.5 3.5-1.6 3.5-3.5 3.5a3.5 3.5 0 0 1-3.5-3.5Zm0-14c0-1.9 1.6-3.5 3.5-3.5s3.5 1.6 3.5 3.5-1.6 3.5-3.5 3.5a3.5 3.5 0 0 1-3.5-3.5Zm0-14c0-1.9 1.6-3.5 3.5-3.5s3.5 1.6 3.5 3.5-1.6 3.5-3.5 3.5a3.5 3.5 0 0 1-3.5-3.5Zm0-14c0-1.9 1.6-3.5 3.5-3.5s3.5 1.6 3.5 3.5-1.6 3.5-3.5 3.5a3.5 3.5 0 0 1-3.5-3.5Zm-14 140c0-1.9 1.6-3.5 3.5-3.5s3.5 1.6 3.5 3.5-1.6 3.5-3.5 3.5c-2 0-3.5-1.6-3.5-3.5Zm-14 0c0-1.9 1.6-3.5 3.5-3.5s3.5 1.6 3.5 3.5-1.6 3.5-3.5 3.5c-2 0-3.5-1.6-3.5-3.5Zm-14 0c0-1.9 1.6-3.5 3.5-3.5s3.5 1.6 3.5 3.5-1.6 3.5-3.5 3.5c-2 0-3.5-1.6-3.5-3.5Zm-14 0c0-1.9 1.6-3.5 3.5-3.5s3.5 1.6 3.5 3.5-1.6 3.5-3.5 3.5c-2 0-3.5-1.6-3.5-3.5Z" />
    <g transform="translate(0 60)">
      <mask id="b" fill="#fff">
        <use xlink:href="#a" />
      </mask>
      <g fill-rule="nonzero" mask="url(#b)">
        <path fill="#4CBFE6"
          d="M13.5 109.4c-.3 0-.5 0-.7.3l-6.5 10.5H6A88 88 0 0 1 89.3 0c1.2 0 1.6 0 2.2 1a1497.2 1497.2 0 0 1 6.2 10.8l-8.5 11.5-.4.2a64.6 64.6 0 0 0-61.1 88.3l-14.2-2.4Z" />
        <path fill="#A6DFF2"
          d="M102.5 11 96.1.3V.1l.2-.1a88.4 88.4 0 0 1 73.2 120.7l-12.8 2.5-.3-.1-8-12a64.9 64.9 0 0 0-54.5-87.8V23l8.6-11.6V11Z" />
        <path fill="#79D0EC"
          d="m154.7 127.5 12.2-2.4h.3v.3a88 88 0 0 1-159.3-.3v-.5l6.9-11 .3-.2 14.2 2.4a64.5 64.5 0 0 0 116.8-.6h.2l8 12.2c.1.1.3.2.4.1Z" />
      </g>
    </g>
    <g transform="translate(370 60)">
      <mask id="d" fill="#fff">
        <use xlink:href="#c" />
      </mask>
      <use xlink:href="#c" fill="#000" />
      <path fill="#323232" fill-rule="nonzero" stroke="#0B0C0C" stroke-width="6" d="M197 3v154H3V3h194Z"
        mask="url(#d)" />
      <rect width="64" height="6" x="58" y="32" fill="#00CC6D" mask="url(#d)" rx="2" />
      <rect width="40" height="6" x="58" y="70" fill="#D4351C" mask="url(#d)" rx="2" />
      <path fill="#00CC6D"
        d="M20.9 34.2a3 3 0 0 1 4.3 0l3.6 3.5 15-14.8a3 3 0 0 1 4.3 0 3 3 0 0 1 0 4.2L31 44.1a3 3 0 0 1-4.3 0L21 38.5a3 3 0 0 1 0-4.3Z"
        mask="url(#d)" />
      <path fill="#D4351C"
        d="M22.9 61.9a3 3 0 0 1 4.1 0l7 7 7-7a3 3 0 0 1 4 4.1l-7 7 7 7a3 3 0 0 1-4 4l-7-7-7 7a3 3 0 0 1-4-4l7-7-7-7a3 3 0 0 1 0-4.1Z"
        mask="url(#d)" />
    </g>
    <path fill="#FFF" d="M138 206h340v230H138z" opacity=".4" />
    <path fill="#1E1E1E" fill-rule="nonzero"
      d="M476.4 198.5c5.6 0 9.1 3.8 9.1 9.8v238.2h-355V208.3c0-6 3.5-9.8 9-9.8h337ZM280 206H142a4 4 0 0 0-4 4v226h340V210a4 4 0 0 0-4-4H336v6a3 3 0 0 1-3 3h-50a3 3 0 0 1-3-3v-6Z" />
    <path fill="#EDEDED" fill-rule="nonzero"
      d="M486 446h-1V207.5c0-5-3.5-8.5-8.5-8.5h-337c-5 0-8.5 3.5-8.5 8.5V446h-1V207.5c0-5.5 4-9.5 9.5-9.5h337c5.5 0 9.5 4 9.5 9.5V446Z" />
    <path fill="#808283" fill-rule="nonzero" d="M269 446h78v7h-78z" />
    <path fill="#B1B4B6" fill-rule="nonzero"
      d="M339.5 452.5H276c-5 0-6.5-3-6.5-6.5H80v10a8 8 0 0 0 8 8h440a8 8 0 0 0 8-8v-10H346.5c0 4-2 6.5-7 6.5Z" />
    <path stroke="#EDEDED" d="M536 446.5H346.5c0 4-2.5 6-6.5 6h-64c-4 0-6.5-2-6.5-6H80" />
    <path fill="#A5A9AB" fill-rule="nonzero"
      d="M80 456v.1a8 8 0 0 0 8 7.9h440a7.9 7.9 0 0 0 7.9-8 8.5 8.5 0 0 1-5.5 2H86c-2.1 0-4.2-.7-5.9-2Z" />
    <path fill="#000" fill-opacity=".5" fill-rule="nonzero" d="M105 466h406l20 4H85z" />
    <path fill="#505A5F" fill-rule="nonzero" d="m107.4 464 5.7 3h38.6l5.7-3zm352 0 5.7 3h38.6l5.7-3z" />
    <path fill="#FFF" fill-rule="nonzero" stroke="#1D70B8" stroke-width="2" d="M179 240h258v168H179z" />
    <path fill="#B1B4B6" d="M196 283h142v9H196z" />
    <path fill="#00703C" fill-rule="nonzero" d="M196 366h64v15h-64z" />
    <path fill="#0B0C0C" fill-rule="nonzero" d="M196 381h64v2h-64z" />
    <path fill="#B1B4B6" fill-rule="nonzero"
      d="M196 301h132v9H196v-9Zm0 18h51v9h-51v-9Zm101 0h19v9h-19v-9Zm-101 18h88v9h-88v-9Z" />
    <path fill="#F3F2F1" fill-rule="nonzero" d="M180 241h256v28H180v-28Z" />
    <path fill="#00E" d="M251 319h42v9h-42z" />
    <path fill="#1D70B8" fill-rule="nonzero" d="M148 230h258v28H148z" />
    <text fill="#FFF" font-family="system-ui, sans-serif" font-size="16" transform="translate(148 230)">
      <tspan x="16" y="20">Service</tspan>
    </text>
    <path fill="#000" fill-opacity=".3" fill-rule="nonzero" d="M75.4 496h25.2l3.4 4H72z" />
    <path fill="#ED3B1F" d="m36 374 24 36H12z" />
    <path fill="#F86A54" d="M36 374h52l-28 36z" />
    <path fill="#ED3B1F" d="M88 374h52l-24 36z" />
    <path fill="#99220F" d="m88 374 28 36H60z" />
    <path fill="#801C0D" d="m88 498 76-88h-48z" />
    <path fill="#F86A54" d="m88 498-28-88H12z" />
    <path fill="#CC3F29" d="m88 498 28-88H60zm52-124 24 36h-48z" />
  </g>
</svg>
